<svg id="_x31__x2C_5" enable-background="new 0 0 36 36" height="512" viewBox="0 0 36 36" width="512" xmlns="http://www.w3.org/2000/svg"><path d="m8.377 4.167c6.917 0 11.667-3.583 15-3.583s10.333 1.916 10.333 17.249-9.417 17.583-13.083 17.583c-17.167.001-24.5-31.249-12.25-31.249z" fill="#efefef"/><path d="m30.625 1.25h1v2h-1z" fill="#a4afc1"/><path d="m32.875 4.25h2v1h-2z" fill="#a4afc1"/><path d="m19.75 22.25s.245 1.765 1.48 3h.02-6.5c1.25-1.25 1.48-3 1.48-3z" fill="#2fdf84"/><path d="m28.25 6.75c.55 0 1 .45 1 1v11h-22.5v-11c0-.55.45-1 1-1z" fill="#f3f3f1"/><path d="m7.75 22.25h20.5c.552 0 1-.448 1-1v-2.5h-22.5v2.5c0 .552.448 1 1 1z" fill="#2fdf84"/><path d="m10 6.75h-2.25c-.55 0-1 .45-1 1v11h2.25v-11c0-.55.45-1 1-1z" fill="#d5dbe1"/><path d="m16.23 22.25s-.23 1.75-1.48 3h2.25c1.25-1.25 1.48-3 1.48-3z" fill="#00b871"/><path d="m9 21.25v-2.5h-2.25v2.5c0 .552.448 1 1 1h2.25c-.552 0-1-.448-1-1z" fill="#00b871"/><path d="m15 16h-1.5v-4c0-.276-.224-.5-.5-.5s-.5.224-.5.5v4h-1.5v-4c0-1.103.897-2 2-2s2 .897 2 2z"/><path d="m11.75 12.5h2.5v1.5h-2.5z"/><path d="m17.5 16h-1.5v-5.25c0-.414.336-.75.75-.75h1.25c1.103 0 2 .897 2 2s-.897 2-2 2h-.5zm0-3.5h.5c.276 0 .5-.224.5-.5s-.224-.5-.5-.5h-.5z"/><path d="m21 10h1.5v6h-1.5z"/><path d="m24.063 16.059-2.811-2.498c-.16-.143-.252-.347-.252-.561s.092-.418.252-.561l2.811-2.498.996 1.121-2.18 1.938 2.18 1.938z"/><path d="m29.25 24h-2.75v-1.5h2v-2h1.5v2.75c0 .414-.336.75-.75.75z"/><path d="m21.5 29.5h-1.5v-2.75c0-.414.336-.75.75-.75h2.75v1.5h-2z"/><path d="m21.657 23.969-1.435-.438c.644-2.112 2.564-3.531 4.778-3.531 1.85 0 3.537 1.015 4.403 2.648l-1.325.703c-.606-1.142-1.785-1.851-3.078-1.851-1.549 0-2.893.992-3.343 2.469z"/><path d="m25 30c-1.85 0-3.537-1.015-4.403-2.648l1.325-.703c.606 1.142 1.785 1.851 3.078 1.851 1.541 0 2.885-.994 3.344-2.472l1.433.444c-.655 2.111-2.575 3.528-4.777 3.528z"/><path d="m18 23h-10.25c-.965 0-1.75-.785-1.75-1.75v-13.5c0-.965.785-1.75 1.75-1.75h20.5c.965 0 1.75.785 1.75 1.75v10.25h-1.5v-10.25c0-.138-.112-.25-.25-.25h-20.5c-.138 0-.25.112-.25.25v13.5c0 .138.112.25.25.25h10.25z"/><path d="m6.75 18h14.25v1.5h-14.25z"/><path d="m18 26h-3.25c-.303 0-.577-.183-.693-.463s-.052-.603.163-.817c1.041-1.041 1.265-2.552 1.267-2.567l1.487.195c-.008.059-.147 1.066-.744 2.152h1.77z"/></svg>